HIERARCHY
ROOT Hips
{
	OFFSET 0.000000 0.000000 0.000000
	CHANNELS 6 Xposition Yposition Zposition Xrotation Yrotation Zrotation
	JOINT LeftUpLeg_virtual
	{
		OFFSET 0.000000 0.000000 0.000000
		CHANNELS 3 Xrotation Yrotation Zrotation
		JOINT LeftUpLeg
		{
			OFFSET 13.026900 -6.336304 -1.092800
			CHANNELS 3 Xrotation Yrotation Zrotation
			JOINT LeftLeg
			{
				OFFSET 0.524474 -46.096886 9.782700
				CHANNELS 3 Xrotation Yrotation Zrotation
				JOINT LeftFoot
				{
					OFFSET -0.524474 -53.427422 -12.948200
					CHANNELS 3 Xrotation Yrotation Zrotation
					JOINT LeftToeBase
					{
						OFFSET 0.192200 -14.009700 16.364100
						CHANNELS 3 Xrotation Yrotation Zrotation
						JOINT LeftToe_End
						{
							OFFSET -1.784700 -0.561700 9.474800
							CHANNELS 3 Xrotation Yrotation Zrotation
							End Site
							{
								OFFSET 0 0 0
							}
						}
					}
				}
			}
		}
	}
	JOINT RightUpLeg_virtual
	{
		OFFSET 0.000000 0.000000 0.000000
		CHANNELS 3 Xrotation Yrotation Zrotation
		JOINT RightUpLeg
		{
			OFFSET -12.883000 -6.336304 -1.092800
			CHANNELS 3 Xrotation Yrotation Zrotation
			JOINT RightLeg
			{
				OFFSET -0.524587 -46.096825 9.782800
				CHANNELS 3 Xrotation Yrotation Zrotation
				JOINT RightFoot
				{
					OFFSET 0.524587 -53.427383 -12.948300
					CHANNELS 3 Xrotation Yrotation Zrotation
					JOINT RightToeBase
					{
						OFFSET -0.192200 -14.009700 16.364100
						CHANNELS 3 Xrotation Yrotation Zrotation
						JOINT RightToe_End
						{
							OFFSET 1.784700 -0.561700 9.474800
							CHANNELS 3 Xrotation Yrotation Zrotation
							End Site
							{
								OFFSET 0 0 0
							}
						}
					}
				}
			}
		}
	}
	JOINT Spine_virtual
	{
		OFFSET 0.000000 0.000000 0.000000
		CHANNELS 3 Xrotation Yrotation Zrotation
		JOINT Spine
		{
			OFFSET 0.072000 7.257294 -0.789700
			CHANNELS 3 Xrotation Yrotation Zrotation
			JOINT Spine1
			{
				OFFSET 0.000000 12.508769 -0.658067
				CHANNELS 3 Xrotation Yrotation Zrotation
				JOINT Spine1_split
				{
					OFFSET 0.000000 12.508769 -0.658067
					CHANNELS 3 Xrotation Yrotation Zrotation
					JOINT Spine2
					{
						OFFSET 0.000000 12.508769 -0.658067
						CHANNELS 3 Xrotation Yrotation Zrotation
						JOINT Neck_virtual
						{
							OFFSET 0.000000 0.000000 0.000000
							CHANNELS 3 Xrotation Yrotation Zrotation
							JOINT Neck
							{
								OFFSET 0.000000 14.033295 7.520400
								CHANNELS 3 Xrotation Yrotation Zrotation
								JOINT Head
								{
									OFFSET 0.000000 8.198502 5.703100
									CHANNELS 3 Xrotation Yrotation Zrotation
									JOINT HeadTop_End
									{
										OFFSET 0.000000 17.760803 13.332701
										CHANNELS 3 Xrotation Yrotation Zrotation
										End Site
										{
											OFFSET 0 0 0
										}
									}
								}
							}
						}
						JOINT LeftShoulder_virtual
						{
							OFFSET 0.000000 0.000000 0.000000
							CHANNELS 3 Xrotation Yrotation Zrotation
							JOINT LeftShoulder
							{
								OFFSET 6.292450 5.785301 -0.669000
								CHANNELS 3 Xrotation Yrotation Zrotation
								JOINT LeftShoulder_split
								{
									OFFSET 6.292450 5.785301 -0.669000
									CHANNELS 3 Xrotation Yrotation Zrotation
									JOINT LeftArm
									{
										OFFSET 13.907140 -6.093903 1.965100
										CHANNELS 3 Xrotation Yrotation Zrotation
										JOINT LeftForeArm
										{
											OFFSET 34.140198 0.000000 0.000000
											CHANNELS 3 Xrotation Yrotation Zrotation
											JOINT LeftHand
											{
												OFFSET 40.960209 0.000000 0.000000
												CHANNELS 3 Xrotation Yrotation Zrotation
												End Site
												{
													OFFSET 0 0 0
												}
											}
										}
									}
								}
							}
						}
						JOINT RightShoulder_virtual
						{
							OFFSET 0.000000 0.000000 0.000000
							CHANNELS 3 Xrotation Yrotation Zrotation
							JOINT RightShoulder
							{
								OFFSET -6.292450 5.785301 -0.669000
								CHANNELS 3 Xrotation Yrotation Zrotation
								JOINT RightShoulder_split
								{
									OFFSET -6.292450 5.785301 -0.669000
									CHANNELS 3 Xrotation Yrotation Zrotation
									JOINT RightArm
									{
										OFFSET -13.907140 -6.093903 1.965100
										CHANNELS 3 Xrotation Yrotation Zrotation
										JOINT RightForeArm
										{
											OFFSET -34.140198 0.000000 0.000000
											CHANNELS 3 Xrotation Yrotation Zrotation
											JOINT RightHand
											{
												OFFSET -40.960209 0.000000 0.000000
												CHANNELS 3 Xrotation Yrotation Zrotation
												End Site
												{
													OFFSET 0 0 0
												}
											}
										}
									}
								}
							}
						}
					}
				}
			}
		}
	}
}
MOTION
Frames: 4
Frame Time: 0.03333333
0.691602 96.455589 0.909473 0.000000 0.000000 0.000000 7.304007 -11.357050 3.795863 -51.525984 5.504361 19.120727 42.910141 3.271762 6.800918 3.448785 0.502608 -20.269906 0.200783 0.368927 -0.705459 0.000000 0.000000 0.000000 7.021519 -12.285377 4.296982 -33.208451 1.891368 -31.386539 44.487495 0.217640 -0.956379 -13.207581 -5.706935 26.158311 -0.413711 0.770714 0.739503 0.000000 0.000000 0.000000 8.869241 -10.442779 3.944995 7.990796 1.147588 -1.045100 8.089472 2.104135 -0.907202 1.145391 0.372534 0.386409 0.000000 0.000000 0.000000 8.237989 1.226994 -0.483116 -1.477306 0.102544 -0.396434 -17.723876 0.697354 2.258736 0.000000 0.000000 0.000000 7.334202 1.332771 -0.701192 2.511038 -12.955919 -9.340585 -4.697057 -4.366483 -1.839953 -22.718276 -3.699345 -43.442725 -179.422062 -56.926775 179.062985 0.000000 0.000000 0.000000 7.345833 1.371136 -0.489239 0.647061 8.579737 10.439455 1.042346 3.940471 -0.848045 5.620658 5.127558 41.259090 -179.820658 87.247006 178.501311 0.000000 0.000000 0.000000 
0.781071 96.502571 1.042908 0.000000 0.000000 0.000000 7.372677 -11.352286 3.766700 -51.537039 5.406998 19.134053 42.879303 3.330969 6.772885 3.363228 0.504422 -20.300939 0.228886 0.365628 -0.707868 0.000000 0.000000 0.000000 7.055092 -12.291586 4.265127 -33.070290 1.891565 -31.355851 44.287165 0.162599 -0.953179 -13.218324 -5.742369 26.202407 -0.460510 0.754950 0.727576 0.000000 0.000000 0.000000 8.963825 -10.433488 3.891164 7.957196 1.169877 -1.076875 8.128084 2.095577 -0.932467 1.198557 0.398543 0.356183 0.000000 0.000000 0.000000 8.233552 1.220289 -0.496169 -1.465504 0.086560 -0.384375 -17.659379 0.726356 2.238823 0.000000 0.000000 0.000000 7.398152 1.323786 -0.695483 2.483681 -12.957380 -9.379489 -4.638246 -4.224790 -1.887000 -22.599919 -3.702675 -43.686371 -179.532137 -57.061811 178.938621 0.000000 0.000000 0.000000 7.377752 1.357649 -0.504474 0.689063 8.707382 10.488244 1.037619 4.023208 -0.879207 5.796554 5.001442 41.098823 179.748272 87.217937 178.994861 0.000000 0.000000 0.000000 
0.933335 96.536575 1.150890 0.000000 0.000000 0.000000 7.453171 -11.417109 3.698560 -51.588712 5.256813 19.167574 42.956200 3.415714 6.750626 3.229386 0.515227 -20.393302 0.255875 0.363419 -0.701261 0.000000 0.000000 0.000000 7.099245 -12.320005 4.190728 -32.938140 1.849216 -31.292484 44.001609 0.099230 -0.956070 -13.313952 -5.805409 26.211502 -0.456092 0.742369 0.708390 0.000000 0.000000 0.000000 9.076215 -10.423962 3.802971 7.935481 1.224674 -1.152662 8.157565 2.117854 -0.946780 1.159176 0.325811 0.319455 0.000000 0.000000 0.000000 8.212567 1.237539 -0.503678 -1.412732 0.008135 -0.379507 -17.504334 0.614818 2.230677 0.000000 0.000000 0.000000 7.446107 1.334133 -0.704368 2.450664 -12.957574 -9.464382 -4.572343 -4.184973 -1.814686 -22.593253 -3.602732 -44.192506 -179.690953 -57.226163 178.774724 0.000000 0.000000 0.000000 7.402286 1.376997 -0.506755 0.735706 8.904134 10.596689 0.996154 4.117147 -0.899623 6.228388 4.780358 40.793124 179.949871 87.248208 178.863748 0.000000 0.000000 0.000000 
1.124489 96.535019 1.218803 0.000000 0.000000 0.000000 7.526122 -11.540842 3.608290 -51.666314 5.090434 19.207066 43.127023 3.513489 6.739733 3.060513 0.527891 -20.530244 0.267645 0.363221 -0.682856 0.000000 0.000000 0.000000 7.152896 -12.386423 4.091661 -32.863039 1.782150 -31.218636 43.705991 0.050426 -0.954904 -13.407902 -5.869858 26.229581 -0.458676 0.734516 0.691091 0.000000 0.000000 0.000000 9.183342 -10.406877 3.705437 7.924397 1.304449 -1.263551 8.172989 2.162001 -0.954247 1.058211 0.247332 0.306799 0.000000 0.000000 0.000000 8.179460 1.274446 -0.507898 -1.350258 -0.103407 -0.384549 -17.324134 0.392428 2.224253 0.000000 0.000000 0.000000 7.472706 1.355653 -0.729628 2.425174 -12.956946 -9.548955 -4.527282 -4.234135 -1.677599 -22.714726 -3.420480 -44.798599 -179.868415 -57.349943 178.611100 0.000000 0.000000 0.000000 7.412361 1.418658 -0.500761 0.781555 9.137249 10.702532 0.890628 4.171353 -0.846777 6.804565 4.471067 40.366257 -179.088380 87.218497 177.970346 0.000000 0.000000 0.000000 
